# xmcd
#
# Track frame offsets:
#	150
#	16045
#	27080
#	38942
#	48465
#	59570
#	69710
#	77840
#	86865
#	96507
#	106407
#	115470
#	127872
#	141302
#	156522
#
# Disc length: 2258 seconds
#
# Revision: 0
# Processed by: cddbd v1.5.2PL0 Copyright (c) Steve Scherf et al.
# Submitted via: audiograbber 1.83.01
#
DISCID=d508d00f
DTITLE=Various Artist - The Young Breed, Volume Two [CD 1)
DYEAR=2010
DGENRE=Rock and Roll
TTITLE0=The Rhythm Shakers - Senior Class
TTITLE1=Dustin Chance and the Allnighters - The Bug
TTITLE2=Alex Vargas - Bonfire
TTITLE3=Omar and the Stringpoppers - Rock Pretty Mama
TTITLE4=Luis and the Wildfires - I Know Your Kind
TTITLE5=Texas Steve - Hello Josefine
TTITLE6=The Desperados - Wasted
TTITLE7=Santos - Pink Pedal Pushers
TTITLE8=The Delta Bombers - Lemontime
TTITLE9=Hi-Strung Ramblers - Nightmare
TTITLE10=Will and The Hi-Rollers - Toda La Noche
TTITLE11=Gizzelle - Pretty Good Love
TTITLE12=Caesars - Sitting at the Top
TTITLE13=Pachuco Jose y los Diamantes - Los Borachos Son Ustedes
TTITLE14=Don Juan y los Blancos - That Lucky Old Sun
EXTD=WILD Records, Hollywood CA
EXTT0=
EXTT1=
EXTT2=
EXTT3=
EXTT4=
EXTT5=
EXTT6=
EXTT7=
EXTT8=
EXTT9=
EXTT10=
EXTT11=
EXTT12=
EXTT13=
EXTT14=
PLAYORDER=
